<?xml version="1.0" standalone="no"?>
<!DOCTYPE svg PUBLIC "-//W3C//DTD SVG 20010904//EN"
 "http://www.w3.org/TR/2001/REC-SVG-20010904/DTD/svg10.dtd">
<svg version="1.0" xmlns="http://www.w3.org/2000/svg"
 width="127pt" height="30pt" viewBox="0 0 127 30"
 preserveAspectRatio="xMidYMid meet">

<g transform="translate(0.000000,1568.000000) scale(0.100000,-0.100000)"
fill="#000000" stroke="none">
<path d="M25028 15660 c-318 -51 -539 -223 -635 -495 -26 -74 -27 -91 -27
-235 0 -144 1 -161 27 -235 84 -239 273 -408 532 -476 113 -29 302 -36 423
-15 387 67 642 356 642 726 0 353 -231 632 -591 715 -86 20 -289 28 -371 15z"/>
<path d="M10 11846 l0 -3146 705 0 705 0 0 1130 0 1130 393 0 392 -1 589
-1117 589 -1117 475 -772 476 -773 5423 0 5423 0 0 -2325 0 -2325 635 0 635 0
0 960 0 960 383 0 c397 0 609 10 787 36 410 59 774 200 1055 406 39 28 124
106 190 172 132 132 216 248 296 407 258 515 266 1257 18 1776 -136 286 -403
544 -717 695 -196 93 -479 175 -732 212 -286 42 -254 41 -2225 41 -1045 0
-3761 1 -6036 3 l-4137 2 -173 265 c-96 146 -179 265 -184 265 -9 0 -1386
2433 -1399 2470 -3 11 21 28 87 60 122 59 301 179 410 274 309 271 510 655
582 1111 22 140 31 472 16 631 -39 424 -175 768 -410 1039 -266 307 -706 523
-1253 615 -312 52 -323 52 -1705 57 l-1293 4 0 -3145z m2538 1990 c313 -52
519 -163 631 -341 163 -257 155 -715 -16 -984 -144 -226 -387 -359 -743 -407
-76 -10 -226 -14 -552 -14 l-448 0 0 886 0 886 513 -5 c422 -3 530 -7 615 -21z
m14831 -6676 c480 -77 702 -296 727 -719 16 -257 -49 -502 -173 -656 -119
-147 -280 -235 -523 -287 -85 -18 -142 -21 -527 -25 l-433 -5 0 857 0 857 428
-5 c258 -3 456 -9 501 -17z"/>
<path d="M27556 14733 c-3 -16 -39 -293 -81 -618 -41 -324 -77 -599 -80 -611
-4 -19 -18 -21 -307 -43 -167 -12 -331 -24 -365 -28 l-63 -6 0 -528 0 -529
325 0 325 0 0 -952 c0 -968 7 -1254 36 -1446 62 -421 202 -738 429 -968 135
-136 262 -222 436 -293 199 -81 400 -119 674 -128 348 -11 700 37 1053 143 78
24 83 27 78 49 -3 12 -53 243 -111 511 -58 269 -107 490 -109 491 -2 2 -23 -4
-47 -12 -100 -36 -249 -66 -354 -72 -207 -11 -358 39 -476 156 -112 112 -170
263 -189 491 -5 63 -10 546 -10 1073 l0 957 575 0 575 0 0 555 0 555 -572 2
-573 3 -3 638 -2 637 -579 0 -579 0 -6 -27z"/>
<path d="M7505 13594 c-16 -2 -72 -9 -124 -15 -334 -39 -714 -197 -1015 -423
-107 -81 -299 -268 -391 -381 -301 -373 -493 -856 -544 -1369 -14 -141 -14
-511 0 -652 116 -1180 868 -1982 2014 -2151 170 -25 573 -25 740 0 431 64 823
202 1174 412 69 42 134 82 143 89 16 12 -1 48 -213 437 -127 233 -233 425
-234 427 -2 2 -44 -20 -93 -48 -178 -100 -410 -188 -613 -232 -143 -30 -497
-33 -629 -4 -431 93 -706 319 -860 706 -27 66 -80 272 -73 282 2 5 645 8 1429
8 783 0 1424 2 1424 4 0 2 4 26 10 54 51 273 58 722 14 1034 -97 699 -407
1235 -889 1535 -250 156 -554 254 -882 282 -113 10 -319 13 -388 5z m354
-1085 c285 -46 485 -216 572 -488 34 -106 59 -254 59 -348 l0 -63 -860 0 -860
0 0 21 c0 28 25 124 57 224 115 356 381 598 720 655 71 11 238 11 312 -1z"/>
<path d="M12690 13593 c-423 -41 -687 -114 -1010 -278 -643 -328 -1077 -913
-1225 -1650 -41 -206 -50 -314 -49 -595 0 -275 13 -414 55 -625 147 -735 567
-1308 1187 -1619 201 -101 488 -187 737 -222 161 -23 550 -26 695 -6 385 55
741 184 1025 375 58 39 225 167 225 173 0 7 -534 900 -545 912 -10 11 -24 5
-76 -35 -289 -219 -635 -331 -913 -294 -341 46 -616 251 -784 586 -113 227
-164 468 -164 775 1 474 131 834 394 1086 140 134 297 217 494 260 111 24 326
24 414 0 136 -37 264 -105 403 -214 34 -27 61 -42 66 -36 5 5 152 205 326 444
175 239 322 440 326 446 21 26 -256 217 -456 314 -230 113 -458 176 -715 199
-107 10 -329 12 -410 4z"/>
<path d="M17627 13585 c-427 -70 -830 -375 -1111 -842 -37 -61 -60 -89 -75
-91 -12 -2 -21 2 -21 10 0 18 -88 744 -95 786 l-6 32 -574 0 -575 0 0 -2390 0
-2390 705 0 705 0 0 1385 0 1384 39 90 c155 350 411 627 678 729 152 59 195
67 363 66 154 0 271 -16 430 -59 30 -8 55 -13 57 -11 2 2 56 276 120 610 98
510 114 609 102 617 -25 16 -141 49 -229 65 -123 22 -404 27 -513 9z"/>
<path d="M18963 11803 c3 -1820 1 -1733 58 -2008 112 -543 356 -898 742 -1080
202 -96 374 -129 667 -130 225 0 283 6 463 51 342 85 681 309 968 639 41 47
82 85 91 85 11 0 19 -11 23 -32 6 -38 95 -618 95 -624 0 -2 259 -4 575 -4
l575 0 0 2390 0 2390 -705 0 -705 0 0 -1584 0 -1583 -52 -69 c-72 -95 -210
-237 -288 -296 -144 -109 -304 -160 -505 -161 -196 0 -315 42 -411 146 -80 87
-116 166 -157 347 -21 94 -21 106 -24 1648 l-4 1552 -705 0 -705 0 4 -1677z"/>
<path d="M24470 11090 l0 -2390 705 0 705 0 0 2390 0 2390 -705 0 -705 0 0
-2390z"/>
<path d="M27660 8289 c-797 -79 -1424 -453 -1822 -1086 -80 -128 -197 -369
-252 -525 -127 -353 -191 -729 -203 -1178 -23 -928 217 -1716 691 -2267 384
-445 914 -716 1546 -788 186 -22 567 -17 740 10 319 48 638 158 893 308 206
122 452 334 604 522 169 209 341 519 438 790 216 601 271 1399 144 2080 -204
1096 -848 1828 -1814 2066 -214 52 -366 70 -630 74 -132 2 -283 -1 -335 -6z
m509 -1115 c523 -93 888 -566 995 -1291 35 -236 44 -505 26 -758 -56 -752
-337 -1281 -794 -1496 -227 -106 -512 -126 -761 -54 -434 126 -746 526 -879
1125 -51 231 -60 340 -60 685 -1 346 9 456 60 685 136 608 465 994 939 1101
123 27 328 29 474 3z"/>
<path d="M20340 5365 l0 -2835 635 0 635 0 0 1020 0 1020 353 0 352 0 534
-1013 c294 -556 537 -1015 540 -1020 4 -4 327 -6 718 -5 l710 3 -633 1124
c-349 619 -634 1128 -634 1132 0 4 48 33 108 64 154 80 281 174 407 300 126
127 204 231 280 377 273 524 270 1314 -6 1815 -221 401 -633 666 -1214 782
-316 63 -504 71 -1732 71 l-1053 0 0 -2835z m2170 1804 c206 -19 374 -64 488
-130 136 -80 241 -226 276 -384 48 -219 24 -454 -66 -635 -86 -173 -263 -311
-481 -374 -167 -49 -260 -56 -706 -56 l-411 0 0 795 0 795 393 0 c215 0 444
-5 507 -11z"/>
<path d="M31304 4076 c-96 -18 -135 -32 -225 -77 -487 -243 -620 -944 -265
-1391 95 -120 269 -232 426 -275 92 -25 358 -25 450 0 96 27 237 99 313 162
224 185 342 495 307 805 -28 248 -130 449 -307 600 -69 60 -233 144 -323 165
-91 22 -288 28 -376 11z"/>
</g>
</svg>
