<svg width="25" height="24" viewBox="0 0 24 24" fill="none" xmlns="http://www.w3.org/2000/svg">
  <path d="M22.23 0H1.77C0.79 0 0 0.78 0 1.75V22.25C0 23.22 0.79 24 1.77 24H22.23C23.21 24 24 23.22 24 22.25V1.75C24 0.78 23.21 0 22.23 0ZM7.12 20.45H3.56V9H7.12V20.45ZM5.34 7.5C4.14 7.5 3.17 6.53 3.17 5.33C3.17 4.13 4.14 3.16 5.34 3.16C6.53 3.16 7.5 4.13 7.5 5.33C7.5 6.53 6.53 7.5 5.34 7.5ZM20.45 20.45H16.88V14.75C16.88 13.34 16.86 11.57 15.07 11.57C13.26 11.57 13 12.98 13 14.64V20.45H9.43V9H12.83V10.64H12.88C13.3 9.81 14.41 8.95 16.05 8.95C19.59 8.95 20.45 11.32 20.45 14.07V20.45Z" fill="white"/>
</svg>
